# File created by Blade
# Date/Time:  Wed Jan 21 18:40:08 2015
# Frame Rate: 120.000 fps
#------------------------------------------------------
:FULLY-SPECIFIED
:DEGREES
3870
root 2.598538 28.787318 -9.457352 78.482251 0.116269 6.078709
RightUpLeg -91.299718 -35.915765 7.680935
RightLeg 5.515094 -0.000000 -0.000000
RightFoot -2.407278 -8.247521 45.925860
RightToeBase 21.006926 -0.000000 -0.000000
LeftUpLeg -87.730848 21.154273 -8.294933
LeftLeg 1.077775 -0.000000 -0.000000
LeftFoot -1.702412 -10.353987 -22.584965
LeftToeBase 5.781938 -0.000000 -0.000000
Spine -37.977485 -0.635118 2.502940
RightShoulder -11.907201 19.152604 -29.052991
RightArm -4.543549 -18.295370 90.758642
RightForeArm 3.976759 -0.000000 34.012984
RightHand 9.410959 -0.000000 -11.961322
RightHandThumb1 -24.326973 -0.000000 -32.862282
LeftShoulder -2.274191 -3.382946 25.752756
LeftArm 29.356727 35.104518 -83.323030
LeftForeArm 14.410628 -0.000000 27.778946
LeftHand -15.851763 0.000000 1.463151
LeftHandThumb1 -26.253704 0.000000 33.147579
Head -32.563517 5.390893 8.478780
3871
root 2.606994 28.791673 -9.437559 78.428728 0.013163 5.972823
RightUpLeg -91.388204 -35.777327 7.743711
RightLeg 5.448470 -0.000000 -0.000000
RightFoot -2.275270 -8.617673 45.770248
RightToeBase 21.843998 -0.000000 -0.000000
LeftUpLeg -87.665356 21.262477 -8.167383
LeftLeg 1.207577 -0.000000 -0.000000
LeftFoot -1.460493 -10.241155 -22.404625
LeftToeBase 6.020419 -0.000000 -0.000000
Spine -37.941801 -0.626556 2.584560
RightShoulder -11.871416 19.205680 -29.032977
RightArm -4.516005 -18.325514 90.663806
RightForeArm 3.938788 -0.000000 33.962729
RightHand 9.356395 -0.000000 -12.047242
RightHandThumb1 -24.326973 -0.000000 -32.862282
LeftShoulder -2.293106 -3.506009 25.799429
LeftArm 29.217757 35.235261 -83.493116
LeftForeArm 14.551939 -0.000000 27.946900
LeftHand -15.934555 -0.000000 1.622546
LeftHandThumb1 -26.253704 0.000000 33.147579
Head -32.528399 5.567038 8.413637
3872
root 2.623181 28.794096 -9.423694 78.485687 -0.030254 5.933759
RightUpLeg -91.689844 -35.718164 8.014910
RightLeg 5.375176 -0.000000 -0.000000
RightFoot -2.133898 -8.985674 45.318234
RightToeBase 22.882386 -0.000000 -0.000000
LeftUpLeg -87.744837 21.264087 -8.006417
LeftLeg 1.401336 -0.000000 -0.000000
LeftFoot -1.206264 -10.090379 -22.234440
LeftToeBase 6.237382 -0.000000 -0.000000
Spine -38.035764 -0.657390 2.741889
RightShoulder -11.826006 19.272241 -29.083769
RightArm -4.527391 -18.292730 90.595191
RightForeArm 3.815257 -0.000000 33.936718
RightHand 9.405134 -0.000000 -12.199111
RightHandThumb1 -24.326973 -0.000000 -32.862282
LeftShoulder -2.307292 -3.427219 25.805327
LeftArm 29.358999 35.366348 -83.470341
LeftForeArm 14.580418 -0.000000 28.122333
LeftHand -15.949844 0.000000 1.547956
LeftHandThumb1 -26.253704 0.000000 33.147579
Head -32.426878 5.706398 8.293097
3873
root 2.635491 28.793083 -9.406927 78.455581 -0.161401 5.883827
RightUpLeg -91.845997 -35.635920 8.089414
RightLeg 5.283274 -0.000000 -0.000000
RightFoot -1.997104 -9.382938 45.306801
RightToeBase 23.858760 -0.000000 -0.000000
LeftUpLeg -87.698588 21.330470 -7.849836
LeftLeg 1.570405 -0.000000 -0.000000
LeftFoot -1.023081 -9.838797 -22.174960
LeftToeBase 6.530161 -0.000000 -0.000000
Spine -38.044590 -0.670331 2.796563
RightShoulder -11.798791 19.289399 -29.104745
RightArm -4.480985 -18.291416 90.511162
RightForeArm 3.928564 -0.000000 33.868588
RightHand 9.327604 0.000000 -11.811896
RightHandThumb1 -24.326973 -0.000000 -32.862282
LeftShoulder -2.258330 -3.477140 25.849043
LeftArm 29.307036 35.456562 -83.544339
LeftForeArm 14.600952 -0.000000 28.316033
LeftHand -15.792386 -0.000000 1.289327
LeftHandThumb1 -26.253704 0.000000 33.147579
Head -32.336888 5.833921 8.199994
3874
root 2.646642 28.790115 -9.389607 78.401746 -0.333056 5.852365
RightUpLeg -91.984809 -35.562170 8.097983
RightLeg 5.217199 -0.000000 -0.000000
RightFoot -1.840053 -9.700351 45.058846
RightToeBase 24.724784 -0.000000 -0.000000
LeftUpLeg -87.625922 21.405805 -7.740062
LeftLeg 1.747008 -0.000000 -0.000000
LeftFoot -0.865965 -9.605957 -22.183401
LeftToeBase 6.678981 -0.000000 -0.000000
Spine -38.030076 -0.669188 2.768710
RightShoulder -11.814048 19.266219 -29.090469
RightArm -4.388265 -18.370636 90.386642
RightForeArm 4.006641 -0.000000 33.789635
RightHand 9.225118 -0.000000 -11.747359
RightHandThumb1 -24.326973 -0.000000 -32.862282
LeftShoulder -2.234724 -3.516066 25.876132
LeftArm 29.380423 35.607875 -83.516952
LeftForeArm 14.670973 -0.000000 28.427384
LeftHand -15.800512 -0.000000 1.471971
LeftHandThumb1 -26.253704 0.000000 33.147579
Head -32.268857 5.918911 8.145019
3875
root 2.657843 28.785604 -9.372458 78.349760 -0.518697 5.829034
RightUpLeg -92.166651 -35.477556 8.113882
RightLeg 5.230343 -0.000000 -0.000000
RightFoot -1.792326 -10.088375 44.736929
RightToeBase 25.677100 -0.000000 -0.000000
LeftUpLeg -87.517103 21.482656 -7.550705
LeftLeg 1.942139 -0.000000 -0.000000
LeftFoot -0.807587 -9.335477 -22.579958
LeftToeBase 7.063927 -0.000000 -0.000000
Spine -38.021655 -0.679308 2.735518
RightShoulder -11.805710 19.280701 -29.075438
RightArm -4.312737 -18.416208 90.272452
RightForeArm 4.009419 -0.000000 33.628245
RightHand 9.533136 -0.000000 -12.263143
RightHandThumb1 -24.326973 -0.000000 -32.862282
LeftShoulder -2.227811 -3.435539 25.867187
LeftArm 29.600406 35.730768 -83.359732
LeftForeArm 14.784826 -0.000000 28.594251
LeftHand -15.793022 -0.000000 1.360072
LeftHandThumb1 -26.253704 0.000000 33.147579
Head -32.199223 6.008419 8.099839
3876
root 2.670089 28.778425 -9.354352 78.305328 -0.726446 5.846010
RightUpLeg -92.366867 -35.452251 8.127006
RightLeg 5.266345 -0.000000 -0.000000
RightFoot -1.793671 -10.285843 44.779498
RightToeBase 26.641383 -0.000000 -0.000000
LeftUpLeg -87.419363 21.530229 -7.451064
LeftLeg 2.111802 -0.000000 -0.000000
LeftFoot -0.727884 -9.119809 -22.923109
LeftToeBase 7.392974 -0.000000 -0.000000
Spine -38.029460 -0.719922 2.679636
RightShoulder -11.795881 19.232464 -29.082884
RightArm -4.223379 -18.441193 90.165224
RightForeArm 4.387274 -0.000000 33.527888
RightHand 9.529640 -0.000000 -11.840562
RightHandThumb1 -24.326973 -0.000000 -32.862282
LeftShoulder -2.208194 -3.441769 25.874301
LeftArm 29.664909 35.791922 -83.332952
LeftForeArm 14.957251 0.000000 28.750909
LeftHand -15.774517 -0.000000 1.276752
LeftHandThumb1 -26.253704 0.000000 33.147579
Head -32.132003 6.096516 8.029267
3877
root 2.681109 28.769452 -9.334650 78.257081 -0.977786 5.899481
RightUpLeg -92.585972 -35.460657 8.117970
RightLeg 5.337494 -0.000000 -0.000000
RightFoot -1.843852 -10.373589 44.796548
RightToeBase 27.617145 -0.000000 -0.000000
LeftUpLeg -87.276531 21.551887 -7.421965
LeftLeg 2.198108 -0.000000 -0.000000
LeftFoot -0.631745 -8.909073 -23.273792
LeftToeBase 7.824666 -0.000000 -0.000000
Spine -38.043165 -0.776203 2.551976
RightShoulder -11.798714 19.242365 -29.071621
RightArm -4.196219 -18.498099 90.060463
RightForeArm 4.497498 -0.000000 33.425779
RightHand 9.590793 -0.000000 -11.828362
RightHandThumb1 -24.326973 -0.000000 -32.862282
LeftShoulder -2.196628 -3.449378 25.871613
LeftArm 29.785536 35.889408 -83.234318
LeftForeArm 15.054686 0.000000 28.863906
LeftHand -15.708442 0.000000 1.208751
LeftHandThumb1 -26.253704 0.000000 33.147579
Head -32.072221 6.179922 7.968068
3878
root 2.691177 28.758875 -9.315628 78.210601 -1.208872 5.977583
RightUpLeg -92.780292 -35.502557 8.088920
RightLeg 5.443220 -0.000000 -0.000000
RightFoot -1.919799 -10.373604 44.798565
RightToeBase 28.353950 -0.000000 -0.000000
LeftUpLeg -87.072006 21.536073 -7.277698
LeftLeg 2.248548 -0.000000 -0.000000
LeftFoot -0.627984 -8.680866 -23.493938
LeftToeBase 7.974613 -0.000000 -0.000000
Spine -38.059043 -0.838329 2.422075
RightShoulder -11.821680 19.270727 -29.075718
RightArm -4.218038 -18.526929 89.973521
RightForeArm 4.488633 0.000000 33.334022
RightHand 9.661101 -0.000000 -11.863758
RightHandThumb1 -24.326973 -0.000000 -32.862282
LeftShoulder -2.183110 -3.484819 25.865994
LeftArm 29.894570 35.956545 -83.169915
LeftForeArm 15.274403 -0.000000 28.946629
LeftHand -15.743973 -0.000000 1.144905
LeftHandThumb1 -26.253704 0.000000 33.147579
Head -32.026039 6.238959 7.915862
3879
root 2.699347 28.746718 -9.295886 78.169387 -1.422700 6.071247
RightUpLeg -92.984444 -35.567308 8.110089
RightLeg 5.559789 -0.000000 -0.000000
RightFoot -2.009303 -10.235650 44.818768
RightToeBase 28.970435 -0.000000 -0.000000
LeftUpLeg -86.916728 21.516247 -7.225934
LeftLeg 2.323482 -0.000000 -0.000000
LeftFoot -0.627602 -8.567363 -23.682729
LeftToeBase 7.847970 -0.000000 -0.000000
Spine -38.094822 -0.937184 2.327135
RightShoulder -11.782926 19.267300 -29.061329
RightArm -4.211660 -18.478456 89.889178
RightForeArm 4.397621 -0.000000 33.230153
RightHand 9.888860 -0.000000 -12.058172
RightHandThumb1 -24.326973 -0.000000 -32.862282
LeftShoulder -2.152950 -3.527225 25.861636
LeftArm 29.897129 35.944228 -83.152890
LeftForeArm 15.362403 -0.000000 29.095419
LeftHand -15.714901 -0.000000 1.114575
LeftHandThumb1 -26.253704 0.000000 33.147579
Head -31.950044 6.296364 7.866206
3880
root 2.703023 28.732970 -9.271089 78.119785 -1.625390 6.160668
RightUpLeg -93.158639 -35.634379 8.179744
RightLeg 5.637026 -0.000000 -0.000000
RightFoot -2.109742 -9.982623 44.720847
RightToeBase 29.608864 -0.000000 -0.000000
LeftUpLeg -86.749563 21.513738 -7.234404
LeftLeg 2.350415 -0.000000 -0.000000
LeftFoot -0.585614 -8.479001 -23.957550
LeftToeBase 7.704108 -0.000000 -0.000000
Spine -38.119561 -1.026504 2.228683
RightShoulder -11.784938 19.244034 -29.043771
RightArm -4.234796 -18.392135 89.827667
RightForeArm 4.397062 -0.000000 33.230623
RightHand 9.722424 -0.000000 -11.967949
RightHandThumb1 -24.326973 -0.000000 -32.862282
LeftShoulder -2.180079 -3.584222 25.824315
LeftArm 29.934031 35.971036 -83.097069
LeftForeArm 15.478194 -0.000000 29.187031
LeftHand -15.709020 -0.000000 1.031823
LeftHandThumb1 -26.253704 0.000000 33.147579
Head -31.923362 6.366647 7.797741
3881
root 2.703371 28.717653 -9.246889 78.079180 -1.766033 6.269437
RightUpLeg -93.319375 -35.732272 8.329505
RightLeg 5.665647 -0.000000 -0.000000
RightFoot -2.170337 -9.603501 44.417873
RightToeBase 30.145908 -0.000000 -0.000000
LeftUpLeg -86.645172 21.487399 -7.306920
LeftLeg 2.381682 -0.000000 -0.000000
LeftFoot -0.484198 -8.428477 -24.202868
LeftToeBase 7.673864 -0.000000 -0.000000
Spine -38.161741 -1.127195 2.180699
RightShoulder -11.786752 19.206000 -29.057071
RightArm -4.240634 -18.375607 89.783581
RightForeArm 4.298391 -0.000000 33.155711
RightHand 9.705764 0.000000 -11.960794
RightHandThumb1 -24.326973 -0.000000 -32.862282
LeftShoulder -2.194735 -3.543437 25.794299
LeftArm 30.084608 35.921096 -83.015917
LeftForeArm 15.588013 0.000000 29.229988
LeftHand -15.755940 -0.000000 1.111459
LeftHandThumb1 -26.253704 0.000000 33.147579
Head -31.879645 6.418714 7.708981
